# Blender 4.2.1 LTS
# www.blender.org
o Cube
v -1.861724 -1.861724 1.861724
v -1.861724 1.861724 1.861724
v -1.861724 -1.861724 -1.861724
v -1.861724 1.861724 -1.861724
v 1.861724 -1.861724 1.861724
v 1.861724 1.861724 1.861724
v 1.861724 -1.861724 -1.861724
v 1.861724 1.861724 -1.861724
v -2.484105 1.942144 2.484105
v -2.484105 1.942144 -2.484105
v 2.484105 1.942144 -2.484105
v 2.484105 1.942144 2.484105
v 0.000000 4.205927 2.370809
v 0.000000 4.205927 -2.370809
v -1.861724 0.000000 1.861724
v -1.861724 -1.861724 0.000000
v -1.861724 1.861724 0.000000
v -1.861724 0.000000 -1.861724
v 0.000000 -1.861724 -1.861724
v 0.000000 1.861724 -1.861724
v 1.861724 0.000000 -1.861724
v 1.861724 -1.861724 0.000000
v 1.861724 1.861724 0.000000
v 1.861724 0.000000 1.861724
v 0.000000 -1.861724 1.861724
v 0.000000 1.861724 1.861724
v -2.484105 1.942144 0.000000
v 0.000000 1.942144 -2.484105
v 2.484105 1.942144 0.000000
v 0.000000 1.942144 2.484105
v 2.172914 1.901934 -2.172914
v 2.172914 1.901934 2.172914
v -2.172914 1.901934 2.172914
v -2.172914 1.901934 -2.172914
v 0.000000 4.205927 0.000000
v -1.242052 3.074036 2.427457
v -1.242052 3.074036 -2.427457
v 1.242052 3.074036 2.427457
v 1.242052 3.074036 -2.427457
v -1.242052 3.074036 0.000000
v 0.783775 5.348351 0.000000
v 0.000000 1.901934 -2.172914
v 0.000000 1.901934 2.172914
v -2.172914 1.901934 0.000000
v 2.172914 1.901934 0.000000
v 0.000000 -1.861724 0.000000
v 0.000000 0.000000 1.861724
v 1.861724 0.000000 0.000000
v 0.000000 0.000000 -1.861724
v -1.861724 0.000000 0.000000
v 0.783775 3.491667 0.000000
v 1.242052 3.074036 0.620027
v 1.700329 2.656404 0.000000
v 1.242052 3.074036 -0.620027
v 1.242052 5.348351 0.620027
v 1.700329 5.348351 0.000000
v 1.242052 5.348351 -0.620027
vn -1.0000 -0.0000 -0.0000
vn -0.0000 -0.0000 -1.0000
vn 1.0000 -0.0000 -0.0000
vn -0.0000 -0.0000 1.0000
vn -0.0000 -1.0000 -0.0000
vn 0.1281 -0.9918 -0.0000
vn -0.0000 0.0500 0.9987
vn -0.1281 -0.9918 -0.0000
vn -0.0000 -0.9918 0.1281
vn -0.0000 -0.9918 -0.1281
vn -0.6736 0.7391 -0.0000
vn -0.0000 0.0500 -0.9988
vn -0.0000 1.0000 -0.0000
vn 0.6736 0.7391 -0.0000
vn 0.8042 -0.0000 -0.5944
vn -0.8042 -0.0000 0.5944
vn 0.8042 -0.0000 0.5944
vn -0.8042 -0.0000 -0.5944
vt 0.625000 0.125000
vt 0.500000 0.250000
vt 0.500000 0.125000
vt 0.625000 0.375000
vt 0.500000 0.500000
vt 0.500000 0.375000
vt 0.625000 0.625000
vt 0.500000 0.750000
vt 0.500000 0.625000
vt 0.625000 0.875000
vt 0.500000 1.000000
vt 0.500000 0.875000
vt 0.375000 0.625000
vt 0.250000 0.750000
vt 0.250000 0.625000
vt 0.625000 0.500000
vt 0.625000 1.000000
vt 0.625000 0.000000
vt 0.625000 0.750000
vt 0.625000 0.250000
vt 0.625000 0.593072
vt 0.625000 0.656928
vt 0.125000 0.750000
vt 0.125000 0.625000
vt 0.250000 0.500000
vt 0.125000 0.500000
vt 0.375000 0.500000
vt 0.375000 1.000000
vt 0.375000 0.875000
vt 0.375000 0.750000
vt 0.375000 0.375000
vt 0.375000 0.250000
vt 0.375000 0.125000
vt 0.500000 0.000000
vt 0.375000 0.000000
s 0
f 17/1/1 18/2/1 50/3/1
f 20/4/2 21/5/2 49/6/2
f 23/7/3 24/8/3 48/9/3
f 26/10/4 15/11/4 47/12/4
f 22/13/5 25/14/5 46/15/5
f 31/16/6 29/7/6 45/7/6
f 9/17/7 30/10/7 36/17/7
f 33/18/8 27/1/8 44/1/8
f 32/19/9 30/10/9 43/10/9
f 34/20/10 28/4/10 42/4/10
f 40/1/11 14/20/11 37/20/11
f 11/16/12 28/4/12 39/16/12
f 41/7/13 56/7/13 57/21/13
f 40/1/11 13/18/11 35/1/11
f 27/1/11 37/20/11 10/20/11
f 27/1/11 36/18/11 40/1/11
f 11/16/14 54/21/14 53/7/14
f 54/21/14 14/16/14 35/7/14
f 29/7/14 52/22/14 38/19/14
f 39/16/12 37/4/12 14/16/12
f 39/16/12 28/4/12 37/4/12
f 28/4/12 10/20/12 37/4/12
f 31/16/10 28/4/10 11/16/10
f 8/16/10 42/4/10 31/16/10
f 4/20/10 42/4/10 20/4/10
f 33/17/9 30/10/9 9/17/9
f 2/17/9 43/10/9 33/17/9
f 6/19/9 43/10/9 26/10/9
f 34/20/8 27/1/8 10/20/8
f 4/20/8 44/1/8 34/20/8
f 2/18/8 44/1/8 17/1/8
f 36/17/7 38/10/7 13/17/7
f 36/17/7 30/10/7 38/10/7
f 30/10/7 12/19/7 38/10/7
f 32/19/6 29/7/6 12/19/6
f 6/19/6 45/7/6 32/19/6
f 8/16/6 45/7/6 23/7/6
f 46/15/5 1/23/5 16/24/5
f 19/25/5 16/24/5 3/26/5
f 7/27/5 46/15/5 19/25/5
f 47/12/4 1/28/4 25/29/4
f 24/8/4 25/29/4 5/30/4
f 6/19/4 47/12/4 24/8/4
f 48/9/3 5/30/3 22/13/3
f 21/5/3 22/13/3 7/27/3
f 8/16/3 48/9/3 21/5/3
f 49/6/2 7/27/2 19/31/2
f 18/2/2 19/31/2 3/32/2
f 4/20/2 49/6/2 18/2/2
f 50/3/1 3/32/1 16/33/1
f 15/34/1 16/33/1 1/35/1
f 2/18/1 50/3/1 15/34/1
f 54/21/15 56/7/15 53/7/15
f 52/22/14 35/7/14 13/19/14
f 51/7/16 55/22/16 41/7/16
f 52/22/17 56/7/17 55/22/17
f 51/7/18 57/21/18 54/21/18
f 17/1/1 4/20/1 18/2/1
f 20/4/2 8/16/2 21/5/2
f 23/7/3 6/19/3 24/8/3
f 26/10/4 2/17/4 15/11/4
f 22/13/5 5/30/5 25/14/5
f 31/16/6 11/16/6 29/7/6
f 33/18/8 9/18/8 27/1/8
f 32/19/9 12/19/9 30/10/9
f 34/20/10 10/20/10 28/4/10
f 40/1/11 35/1/11 14/20/11
f 41/7/13 55/22/13 56/7/13
f 40/1/11 36/18/11 13/18/11
f 27/1/11 40/1/11 37/20/11
f 27/1/11 9/18/11 36/18/11
f 53/7/14 29/7/14 11/16/14
f 11/16/14 39/16/14 54/21/14
f 35/7/14 51/7/14 54/21/14
f 54/21/14 39/16/14 14/16/14
f 38/19/14 12/19/14 29/7/14
f 29/7/14 53/7/14 52/22/14
f 31/16/10 42/4/10 28/4/10
f 8/16/10 20/4/10 42/4/10
f 4/20/10 34/20/10 42/4/10
f 33/17/9 43/10/9 30/10/9
f 2/17/9 26/10/9 43/10/9
f 6/19/9 32/19/9 43/10/9
f 34/20/8 44/1/8 27/1/8
f 4/20/8 17/1/8 44/1/8
f 2/18/8 33/18/8 44/1/8
f 32/19/6 45/7/6 29/7/6
f 6/19/6 23/7/6 45/7/6
f 8/16/6 31/16/6 45/7/6
f 46/15/5 25/14/5 1/23/5
f 19/25/5 46/15/5 16/24/5
f 7/27/5 22/13/5 46/15/5
f 47/12/4 15/11/4 1/28/4
f 24/8/4 47/12/4 25/29/4
f 6/19/4 26/10/4 47/12/4
f 48/9/3 24/8/3 5/30/3
f 21/5/3 48/9/3 22/13/3
f 8/16/3 23/7/3 48/9/3
f 49/6/2 21/5/2 7/27/2
f 18/2/2 49/6/2 19/31/2
f 4/20/2 20/4/2 49/6/2
f 50/3/1 18/2/1 3/32/1
f 15/34/1 50/3/1 16/33/1
f 2/18/1 17/1/1 50/3/1
f 54/21/15 57/21/15 56/7/15
f 13/19/14 38/19/14 52/22/14
f 52/22/14 51/7/14 35/7/14
f 51/7/16 52/22/16 55/22/16
f 52/22/17 53/7/17 56/7/17
f 51/7/18 41/7/18 57/21/18
