# Blender 3.6.0
# www.blender.org
mtllib lowpolyface.mtl
o Plane
v 0.082390 0.631700 -0.572238
v 0.082390 0.375699 -0.710478
v 0.081026 -0.749167 -0.559935
v 0.010439 -1.282205 -0.290704
v 0.672129 -1.526383 0.111142
v 0.082390 0.872340 -0.208717
v 0.083403 0.974739 0.111142
v 1.109980 0.180011 0.111142
v 0.819670 0.723859 0.111142
v 0.965091 0.448494 0.111142
v 1.055236 -0.181626 0.111142
v 0.082390 -0.185444 -0.640896
v 0.763919 0.758994 -0.192703
v 0.836879 0.539539 -0.346531
v 0.909839 0.273299 -0.415651
v 0.903439 -0.151661 -0.382371
v 0.600796 0.862922 0.111142
v 0.440932 0.835220 -0.240078
v 0.381419 -0.711806 -0.443567
v 1.166291 -0.668408 0.111142
v 0.477413 0.585619 -0.512718
v 0.872511 -0.659298 -0.058577
v 0.931184 -0.770284 0.111142
v 0.929232 -0.322750 0.111142
v 1.045748 -0.179753 0.080296
v -0.335402 0.631700 -0.566094
v -0.335402 0.375699 -0.676686
v -0.225896 -0.664716 -0.456628
v -0.335402 0.872340 -0.202574
v -0.334390 0.974739 0.111142
v -0.340644 -0.190439 -0.637673
v 0.040205 -1.252494 0.111142
v 0.903488 -0.317880 0.069630
v 0.735553 -0.329605 -0.416381
v 0.300974 -1.208806 -0.326436
v 0.795165 -1.447059 0.111142
v -1.121378 0.381407 0.111142
v -1.110679 0.098860 0.111142
v -0.990302 0.716860 0.111142
v -1.064632 -0.342729 0.110746
v -0.894372 0.421913 -0.394123
v -0.719565 0.775469 -0.146271
v -0.819687 -0.275632 -0.419491
v -0.888475 0.119174 -0.434195
v -0.467924 -0.577612 0.111142
v -0.059213 -0.841387 0.111142
v -0.703818 -0.560123 -0.369630
v 0.491894 0.325022 -0.564568
v 0.082390 0.631700 0.794521
v 0.082390 0.375699 0.932761
v 0.081026 -0.749167 0.782219
v 0.010439 -1.282205 0.512987
v 0.082390 0.872340 0.431001
v 0.082390 -0.185444 0.863179
v 0.763919 0.758994 0.414986
v 0.836879 0.539539 0.568814
v 0.909839 0.273299 0.637934
v 0.903439 -0.151661 0.604654
v 0.440932 0.835220 0.462361
v 0.381419 -0.711806 0.665850
v 0.477413 0.585619 0.735001
v 0.872511 -0.659298 0.280860
v 1.045748 -0.179753 0.141987
v -0.335402 0.631700 0.788377
v -0.335402 0.375699 0.898969
v -0.225298 -0.665154 0.678251
v -0.335402 0.872340 0.424857
v -0.340644 -0.190439 0.859957
v 0.903488 -0.317880 0.152654
v 0.735553 -0.329605 0.638664
v 0.300974 -1.208806 0.548719
v -0.894372 0.421913 0.616406
v -0.719565 0.775469 0.368554
v -0.823673 -0.275120 0.644419
v -0.888475 0.119174 0.656478
v -0.706865 -0.558377 0.592761
v 0.491894 0.325022 0.786852
v -0.150087 -0.996899 -0.378627
v -1.018008 -0.360861 -0.177239
v -0.015370 -1.270515 -0.090379
v -0.840857 -0.411566 0.111614
v -0.258085 -0.730050 0.111142
v -0.205764 -0.761195 -0.224563
v -0.021622 -0.968355 0.111142
v -0.622294 -0.596217 -0.160035
v -0.150087 -0.996899 0.600910
v -1.014369 -0.360895 0.398955
v -0.015370 -1.270515 0.312662
v -0.205764 -0.761195 0.446847
v -0.464439 -0.619686 0.634629
v -0.622294 -0.596217 0.382318
v -0.086073 -0.986371 0.378702
v -0.853843 -0.396103 0.367543
v -0.393861 -0.655157 0.386228
v -0.086073 -0.986371 -0.156419
v -0.854545 -0.396097 -0.145056
v -0.393861 -0.655157 -0.163945
v -0.594774 -2.266664 -0.371547
v -0.355327 -2.291360 -0.259739
v -0.152797 -2.271955 -0.120238
v 0.274867 -0.174152 -0.120198
v -0.134653 -2.203725 0.096333
v -0.163044 -2.261862 0.333828
v 0.274867 -0.174149 0.333806
v -0.340366 -2.284587 0.478947
v -0.655092 -2.270956 0.583109
v -0.918268 -2.101311 0.459924
v -1.024355 -2.096042 0.333828
v -1.031018 -1.986597 0.106795
v -1.049957 -2.058439 -0.096480
v -1.011286 -2.031971 -0.289900
v -0.381619 -0.933497 -0.330547
v -0.095383 -0.998832 -0.280120
v 0.077174 -1.034961 -0.116968
v 0.137834 -1.047031 0.106796
v 0.076774 -1.034863 0.330757
v -0.095580 -0.998797 0.493899
v -0.347706 -0.945183 0.558247
v -0.630946 -0.899539 0.500027
v -0.823550 -0.873637 0.333828
v -0.891080 -0.865339 0.106795
v -0.823795 -0.873269 -0.120238
v -0.631036 -0.899227 -0.286438
v -0.245471 -1.468511 -0.286438
v -0.105498 -1.472545 -0.120238
v -0.061188 -1.469391 0.106795
v -0.107248 -1.473080 0.333828
v -0.247404 -1.470060 0.500027
v -0.469313 -1.446882 0.560860
v -0.692920 -1.355856 0.500027
v -0.842306 -1.246339 0.333828
v -0.886059 -1.200390 0.106795
v -0.843400 -1.247283 -0.120238
v -0.693447 -1.355566 -0.286438
v -0.468826 -1.445405 -0.347271
v 0.509326 -0.167698 -0.507541
v 0.481067 -0.168880 0.738611
v -1.036661 0.086216 -0.220162
v -1.064800 0.090532 0.444688
v -0.662676 0.247477 -0.567433
v -0.645700 0.527002 -0.486807
v -0.662676 0.247477 0.789717
v -0.582158 -0.232779 0.752188
v -0.586693 -0.234196 -0.525609
v -0.496714 -0.601498 -0.393763
v -0.929559 -0.588783 0.370009
v -0.988706 -0.571362 0.109017
v -0.930287 -0.592303 -0.151493
v -1.011423 0.401027 -0.133592
v -1.005344 0.402111 0.369407
v 0.616882 -0.686630 -0.258976
v 0.612578 -0.687090 0.484634
vn 0.3754 0.9199 -0.1131
vn 0.2058 0.7468 0.6324
vn 0.8921 0.3924 -0.2241
vn 0.9385 -0.0871 -0.3342
vn 0.3768 -0.2698 -0.8861
vn 0.2708 0.3391 -0.9009
vn 0.3277 0.6763 -0.6597
vn 0.1098 0.7903 -0.6028
vn 0.5341 0.3072 -0.7876
vn 0.3200 -0.7385 -0.5935
vn 0.6725 -0.6313 -0.3863
vn -0.1670 -0.2584 -0.9515
vn -0.0081 0.8338 -0.5520
vn -0.0429 0.4367 -0.8986
vn -0.0023 0.9515 -0.3076
vn -0.0432 -0.0956 -0.9945
vn -0.1795 -0.4015 -0.8981
vn 0.7093 -0.6616 -0.2434
vn 0.7733 -0.2905 -0.5636
vn 0.2010 -0.7038 -0.6813
vn 0.2741 -0.1517 -0.9497
vn 0.5837 -0.2535 -0.7714
vn 0.3110 -0.1083 -0.9442
vn -0.7573 0.4911 0.4304
vn -0.7748 -0.1229 -0.6202
vn -0.9591 0.1117 0.2601
vn -0.4953 0.1854 -0.8487
vn -0.3336 -0.0949 -0.9379
vn -0.4383 0.2889 0.8511
vn -0.3255 0.9186 -0.2241
vn 0.1556 0.9621 -0.2238
vn -0.2799 -0.3817 0.8809
vn -0.2728 -0.2745 -0.9221
vn -0.5073 -0.8455 0.1665
vn -0.9463 -0.3009 0.1184
vn 0.3907 0.2671 -0.8809
vn 0.3754 0.9199 0.1131
vn 0.8921 0.3924 0.2241
vn 0.9385 -0.0871 0.3342
vn 0.3768 -0.2698 0.8861
vn 0.2708 0.3391 0.9009
vn 0.5341 0.3072 0.7876
vn 0.3200 -0.7385 0.5935
vn 0.6725 -0.6313 0.3863
vn -0.1679 -0.2590 0.9512
vn -0.0081 0.8338 0.5520
vn -0.0429 0.4367 0.8986
vn -0.0023 0.9515 0.3076
vn -0.0432 -0.0956 0.9945
vn -0.1798 -0.4012 0.8982
vn 0.7093 -0.6616 0.2434
vn 0.7733 -0.2905 0.5636
vn 0.2010 -0.7038 0.6813
vn 0.2758 -0.1534 0.9489
vn 0.5835 -0.2537 0.7715
vn 0.3114 -0.1086 0.9441
vn -0.7532 -0.1465 0.6412
vn -0.4198 -0.1208 0.8995
vn -0.3756 0.7315 -0.5690
vn -0.3255 0.9186 0.2241
vn 0.1556 0.9621 0.2238
vn -0.3676 -0.9122 0.1810
vn -0.5080 -0.8451 -0.1663
vn -0.9465 -0.3005 -0.1177
vn 0.3907 0.2671 0.8809
vn -0.8960 -0.3465 -0.2777
vn -0.9473 -0.1911 -0.2571
vn -0.9310 -0.3503 -0.1026
vn -0.6666 -0.7169 -0.2042
vn -0.2603 -0.9654 0.0130
vn -0.2531 -0.9650 0.0686
vn -0.4294 -0.8928 -0.1361
vn -0.4892 -0.8722 -0.0047
vn -0.9310 -0.3503 0.1026
vn -0.9473 -0.1911 0.2571
vn -0.8960 -0.3465 0.2777
vn -0.2587 -0.9659 -0.0109
vn -0.4892 -0.8722 0.0047
vn -0.4294 -0.8928 0.1361
vn -0.3233 0.9463 0.0017
vn -0.2481 -0.9686 -0.0149
vn -0.2038 0.0484 -0.9778
vn -0.6809 0.0673 -0.7292
vn -0.9712 0.0200 -0.2376
vn -0.9706 0.0188 0.2401
vn -0.6818 0.0664 0.7285
vn -0.2171 0.0443 0.9751
vn 0.8917 -0.3961 0.2192
vn 0.8928 -0.3955 -0.2157
vn 0.4707 -0.1536 0.8688
vn -0.6435 -0.3293 0.6909
vn -0.9156 -0.3367 0.2199
vn -0.9284 -0.3383 -0.1537
vn -0.6411 -0.3529 -0.6815
vn -0.2469 -0.2885 0.9251
vn 0.3444 -0.0508 -0.9374
vn 0.6658 -0.0767 -0.7421
vn 0.9889 -0.0770 -0.1268
vn 0.9856 -0.0846 0.1467
vn 0.7006 -0.0743 0.7097
vn 0.2905 -0.0487 0.9556
vn -0.3184 0.0727 0.9452
vn -0.7099 0.1641 0.6849
vn -0.9658 0.1931 0.1733
vn -0.9708 0.2120 -0.1120
vn -0.8215 0.2828 -0.4952
vn -0.1815 0.0720 -0.9807
vn 0.1776 -0.2400 0.9544
vn -0.1975 0.0530 0.9789
vn -0.1895 0.2251 0.9557
vn 0.1861 -0.0637 0.9805
vn -0.3167 -0.9363 -0.1518
vn 0.7301 -0.6495 0.2124
vn -0.7360 0.6416 0.2159
vn 0.3150 -0.0892 -0.9449
vn 0.3144 -0.0897 0.9450
vn -0.6698 -0.7168 0.1941
vn -0.9791 -0.0802 -0.1868
vn -0.9826 -0.1138 0.1471
vn -0.2373 -0.3027 0.9230
vn 0.4445 -0.1313 -0.8861
vn 0.9818 -0.1899 0.0005
vn -0.3748 0.3223 -0.8693
vn -0.3306 -0.0925 0.9392
vn 0.3326 -0.1595 0.9295
vn 0.3314 -0.1603 -0.9298
vn -0.2907 -0.3286 0.8986
vn -0.2672 -0.3362 -0.9031
vn -0.1846 -0.2585 -0.9482
vn -0.3077 -0.3964 -0.8650
vn -0.4213 -0.1275 -0.8979
vn -0.6390 -0.3143 -0.7021
vn -0.6523 -0.3623 0.6658
vn -0.9272 -0.3374 0.1628
vn -0.9165 -0.3363 -0.2164
vn -0.3717 -0.9234 -0.0958
vn -0.3717 -0.9234 0.0958
vn -0.7573 0.4911 -0.4304
vn -0.9507 0.0670 -0.3028
vn 0.8976 0.4408 -0.0000
vn -0.3753 0.7160 0.5886
vn -0.8721 0.1244 -0.4733
vn -0.8432 0.1693 0.5102
vn 0.7205 -0.2129 -0.6600
vn 0.7194 -0.2131 0.6611
vt 0.000000 0.000000
vt 0.666667 1.000000
vt 0.833333 1.000000
vt 0.833333 0.750000
vt 0.916667 0.750000
vt 0.000000 0.750000
vt 0.083333 0.750000
vt 0.166667 0.750000
vt 0.250000 0.750000
vt 0.333333 0.750000
vt 0.416667 0.750000
vt 0.500000 0.750000
vt 0.583333 0.750000
vt 0.666667 0.750000
vt 0.750000 0.490000
vt 0.870000 0.457846
vt 0.957846 0.370000
vt 0.990000 0.250000
vt 0.957846 0.130000
vt 0.870000 0.042154
vt 0.750000 0.010000
vt 0.630000 0.042154
vt 0.542154 0.130000
vt 0.510000 0.250000
vt 0.542154 0.370000
vt 0.630000 0.457846
vt 0.083333 0.625000
vt 0.000000 0.625000
vt 0.166667 0.625000
vt 0.250000 0.625000
vt 0.333333 0.625000
vt 0.416667 0.625000
vt 0.500000 0.625000
vt 0.750000 0.625000
vt 0.750000 0.750000
vt 0.666667 0.625000
vt 0.833333 0.625000
vt 0.583333 0.625000
vt 1.000000 0.500000
vt 1.000000 0.625000
vt 0.916667 0.625000
vt 0.916667 0.500000
vt 0.833333 0.500000
vt 0.750000 0.500000
vt 0.666667 0.500000
vt 0.583333 0.500000
vt 0.500000 0.500000
vt 0.416667 0.500000
vt 0.333333 0.500000
vt 0.250000 0.500000
vt 0.166667 0.500000
vt 0.083333 0.500000
vt 0.000000 0.500000
vt 1.000000 0.750000
s 0
f 17/1/1 9/1/1 13/1/1 18/1/1
f 49/1/2 61/1/2 56/1/2 55/1/2 59/1/2 53/1/2
f 15/1/3 14/1/3 10/1/3 8/1/3
f 16/1/4 15/1/4 8/1/4 11/1/4 25/1/4
f 3/1/5 19/1/5 35/1/5
f 2/1/6 1/1/6 21/1/6 48/1/6
f 21/1/7 18/1/7 13/1/7 14/1/7
f 1/1/8 6/1/8 18/1/8 21/1/8
f 22/1/9 33/1/9 24/1/9 20/1/9
f 23/1/10 22/1/10 20/1/10
f 25/1/11 11/1/11 24/1/11 33/1/11
f 12/1/12 3/1/12 28/1/12 31/1/12
f 6/1/13 1/1/13 26/1/13 29/1/13
f 1/1/14 2/1/14 27/1/14 26/1/14
f 7/1/15 6/1/15 29/1/15 30/1/15
f 2/1/16 12/1/16 31/1/16 27/1/16
f 3/1/17 35/1/17 4/1/17 78/1/17 28/1/17
f 33/1/18 34/1/18 16/1/18 25/1/18
f 19/1/19 34/1/19 33/1/19 22/1/19 151/1/19
f 4/1/20 35/1/20 36/1/20 5/1/20
f 16/1/21 34/1/21 19/1/21 136/1/21
f 35/1/22 19/1/22 151/1/22 36/1/22
f 12/1/23 2/1/23 48/1/23 136/1/23
f 73/1/24 39/1/24 37/1/24 150/1/24 72/1/24
f 44/1/25 43/1/25 79/1/25 138/1/25
f 37/1/26 38/1/26 139/1/26 150/1/26
f 141/1/27 140/1/27 44/1/27 41/1/27
f 27/1/28 31/1/28 144/1/28 140/1/28
f 64/1/29 72/1/29 75/1/29 142/1/29 65/1/29
f 29/1/30 42/1/30 39/1/30 30/1/30
f 7/1/31 17/1/31 18/1/31 6/1/31
f 68/1/32 143/1/32 90/1/32 66/1/32
f 112/1/33 145/1/33 28/1/33 78/1/33
f 96/1/34 85/1/34 45/1/34 81/1/34
f 95/1/35 83/1/35 28/1/35 78/1/35
f 48/1/36 21/1/36 14/1/36 15/1/36
f 17/1/37 59/1/37 55/1/37 9/1/37
f 57/1/38 8/1/38 10/1/38 56/1/38
f 58/1/39 63/1/39 11/1/39 8/1/39 57/1/39
f 51/1/40 71/1/40 60/1/40
f 50/1/41 77/1/41 61/1/41 49/1/41
f 62/1/42 20/1/42 24/1/42 69/1/42
f 23/1/43 20/1/43 62/1/43
f 63/1/44 69/1/44 24/1/44 11/1/44
f 54/1/45 68/1/45 66/1/45 51/1/45
f 53/1/46 67/1/46 64/1/46 49/1/46
f 49/1/47 64/1/47 65/1/47 50/1/47
f 7/1/48 30/1/48 67/1/48 53/1/48
f 50/1/49 65/1/49 68/1/49 54/1/49
f 51/1/50 66/1/50 86/1/50 52/1/50 71/1/50
f 69/1/51 63/1/51 58/1/51 70/1/51
f 60/1/52 152/1/52 62/1/52 69/1/52 70/1/52
f 52/1/53 5/1/53 36/1/53 71/1/53
f 58/1/54 137/1/54 60/1/54 70/1/54
f 71/1/55 36/1/55 152/1/55 60/1/55
f 54/1/56 137/1/56 77/1/56 50/1/56
f 75/1/57 139/1/57 87/1/57 74/1/57
f 142/1/58 75/1/58 74/1/58 143/1/58
f 29/1/59 26/1/59 141/1/59 41/1/59 42/1/59
f 67/1/60 30/1/60 39/1/60 73/1/60
f 7/1/61 53/1/61 59/1/61 17/1/61
f 94/1/62 89/1/62 66/1/62 90/1/62
f 93/1/63 81/1/63 45/1/63 91/1/63
f 92/1/64 86/1/64 66/1/64 89/1/64
f 77/1/65 57/1/65 56/1/65 61/1/65
f 84/1/66 92/1/66 89/1/66 46/1/66
f 32/1/67 88/1/67 92/1/67 84/1/67
f 88/1/68 52/1/68 86/1/68 92/1/68
f 43/1/69 47/1/69 85/1/69 96/1/69 79/1/69
f 87/1/70 40/1/70 81/1/70 93/1/70
f 91/1/71 94/1/71 90/1/71 76/1/71
f 45/1/72 82/1/72 94/1/72 91/1/72
f 82/1/73 46/1/73 89/1/73 94/1/73
f 80/1/74 95/1/74 78/1/74 4/1/74
f 32/1/75 84/1/75 95/1/75 80/1/75
f 84/1/76 46/1/76 83/1/76 95/1/76
f 79/1/77 96/1/77 81/1/77 40/1/77
f 82/1/78 97/1/78 83/1/78 46/1/78
f 45/1/79 85/1/79 97/1/79 82/1/79
f 104/2/80 101/3/80 114/4/80 113/5/80 112/6/80 123/7/80 122/8/80 121/9/80 120/10/80 119/11/80 118/12/80 117/13/80 116/14/80
f 98/15/81 99/16/81 100/17/81 102/18/81 103/19/81 105/20/81 106/21/81 107/22/81 108/23/81 109/24/81 110/25/81 111/26/81
f 134/27/82 123/7/82 112/6/82 135/28/82
f 133/29/83 122/8/83 123/7/83 134/27/83
f 132/30/84 121/9/84 122/8/84 133/29/84
f 131/31/85 120/10/85 121/9/85 132/30/85
f 130/32/86 119/11/86 120/10/86 131/31/86
f 129/33/87 118/12/87 119/11/87 130/32/87
f 126/34/88 115/35/88 116/14/88 127/36/88
f 125/37/89 114/4/89 115/35/89 126/34/89
f 127/36/90 116/14/90 117/13/90 118/12/90 129/33/90 128/38/90
f 76/1/91 146/1/91 120/1/91 119/1/91
f 120/1/92 146/1/92 147/1/92 121/1/92
f 79/1/93 148/1/93 147/1/93 40/1/93
f 43/1/94 47/1/94 148/1/94 79/1/94
f 118/1/95 86/1/95 66/1/95 90/1/95
f 98/39/96 135/40/96 124/41/96 99/42/96
f 99/42/97 124/41/97 125/37/97 100/43/97
f 100/43/98 125/37/98 126/34/98 102/44/98
f 102/44/99 126/34/99 127/36/99 103/45/99
f 103/45/100 127/36/100 128/38/100 105/46/100
f 105/46/101 128/38/101 129/33/101 106/47/101
f 106/47/102 129/33/102 130/32/102 107/48/102
f 107/48/103 130/32/103 131/31/103 108/49/103
f 108/49/104 131/31/104 132/30/104 109/50/104
f 109/50/105 132/30/105 133/29/105 110/51/105
f 110/51/106 133/29/106 134/27/106 111/52/106
f 111/52/107 134/27/107 135/28/107 98/53/107
f 128/1/108 52/1/108 86/1/108 129/1/108
f 129/1/109 86/1/109 118/1/109
f 124/1/110 4/1/110 78/1/110 135/1/110
f 135/1/111 78/1/111 112/1/111
f 47/1/112 145/1/112 28/1/112 83/1/112 97/1/112 85/1/112
f 52/1/113 128/1/113 127/1/113 88/1/113
f 4/1/114 124/1/114 125/1/114 80/1/114
f 136/1/115 48/1/115 15/1/115 16/1/115
f 77/1/116 137/1/116 58/1/116 57/1/116
f 74/1/117 87/1/117 93/1/117 91/1/117 76/1/117
f 138/1/118 79/1/118 40/1/118 38/1/118
f 87/1/119 139/1/119 38/1/119 40/1/119
f 90/1/120 76/1/120 119/1/120 118/1/120
f 135/40/121 112/54/121 113/5/121 114/4/121 125/37/121 124/41/121
f 114/4/122 101/3/122 104/2/122 116/14/122 115/35/122
f 26/1/123 27/1/123 140/1/123 141/1/123
f 65/1/124 142/1/124 143/1/124 68/1/124
f 60/1/125 137/1/125 54/1/125 51/1/125
f 136/1/126 19/1/126 3/1/126 12/1/126
f 90/1/127 143/1/127 74/1/127 76/1/127
f 43/1/128 144/1/128 145/1/128 47/1/128
f 145/1/129 112/1/129 123/1/129 47/1/129
f 145/1/130 144/1/130 31/1/130 28/1/130
f 140/1/131 144/1/131 43/1/131 44/1/131
f 148/1/132 47/1/132 123/1/132 122/1/132
f 146/1/133 76/1/133 74/1/133 87/1/133
f 147/1/134 146/1/134 87/1/134 40/1/134
f 147/1/135 148/1/135 122/1/135 121/1/135
f 5/1/136 52/1/136 88/1/136 32/1/136
f 5/1/137 32/1/137 80/1/137 4/1/137
f 37/1/138 39/1/138 42/1/138 41/1/138 149/1/138
f 138/1/139 38/1/139 37/1/139 149/1/139
f 56/1/140 10/1/140 14/1/140 13/1/140 9/1/140 55/1/140
f 67/1/141 73/1/141 72/1/141 64/1/141
f 149/1/142 41/1/142 44/1/142 138/1/142
f 150/1/143 139/1/143 75/1/143 72/1/143
f 36/1/144 151/1/144 22/1/144 23/1/144
f 152/1/145 36/1/145 23/1/145 62/1/145
l 97 145
